<?xml version="1.0" encoding="utf-8"?>
<!-- Generator: Adobe Illustrator 23.0.3, SVG Export Plug-In . SVG Version: 6.00 Build 0)  -->
<svg version="1.1" id="aedd33ec-96f2-4c7d-b10d-0ed269916e3c"
	 xmlns="http://www.w3.org/2000/svg" xmlns:xlink="http://www.w3.org/1999/xlink" x="0px" y="0px" viewBox="0 0 1366 500"
	 style="enable-background:new 0 0 1366 500;" xml:space="preserve">
<style type="text/css">
	.st0{fill:none;stroke:#BFBFBF;stroke-width:4.2341;stroke-miterlimit:10;}
	.st1{fill:#BFBFBF;}
	.st2{fill:#009EE2;}
	.st3{fill:none;stroke:#000000;stroke-width:16.9364;stroke-linecap:round;stroke-linejoin:round;}
	.st4{fill:#909090;}
	.st5{fill:#363636;}
	.st6{opacity:0.19;fill:#FFFFFF;enable-background:new    ;}
	.st7{fill:none;stroke:#000000;stroke-width:8.4682;stroke-linecap:round;stroke-linejoin:round;}
	.st8{fill:#FFFFFF;}
	.st9{fill:none;stroke:#000000;stroke-width:4.2341;stroke-linecap:round;stroke-linejoin:round;}
	.st10{fill:none;stroke:#009EE2;stroke-width:16.9364;stroke-linecap:round;stroke-miterlimit:10;}
</style>
<title>responsive_webdesign</title>
<rect x="416.6" y="444.3" class="st0" width="143.4" height="7.1"/>
<path class="st1" d="M414.6,442.1c9.5-5.6,17.1-13.8,21.9-23.7c3.7-7.6,5.9-15.9,6.3-24.4c0.4-8.2,0.1-17.1,0.1-17.1h90.8
	c0,0-0.3,8.9,0.1,17.1c0.4,8.5,2.6,16.8,6.3,24.4c4.8,9.9,12.4,18.1,21.9,23.7H414.6z"/>
<rect x="261.8" y="160.3" class="st2" width="450.6" height="66.1"/>
<rect x="261.8" y="104.3" class="st3" width="450.6" height="275.1"/>
<circle class="st4" cx="487.1" cy="135.7" r="15.3"/>
<circle class="st5" cx="487.1" cy="104.3" r="1.5"/>
<rect x="331.4" y="239.2" class="st4" width="94.4" height="41.4"/>
<rect x="331.4" y="283.5" class="st2" width="71.2" height="1.8"/>
<rect x="331.4" y="340.7" class="st4" width="94.4" height="1.8"/>
<rect x="331.4" y="337.1" class="st4" width="94.4" height="1.8"/>
<rect x="331.4" y="333.5" class="st4" width="90.4" height="1.8"/>
<rect x="331.4" y="330" class="st4" width="92.5" height="1.8"/>
<rect x="331.4" y="326.4" class="st4" width="90" height="1.8"/>
<rect x="331.4" y="322.8" class="st4" width="44" height="1.8"/>
<rect x="331.4" y="315.7" class="st4" width="84.4" height="1.8"/>
<rect x="331.4" y="312.1" class="st4" width="92.5" height="1.8"/>
<rect x="331.4" y="308.5" class="st4" width="89.4" height="1.8"/>
<rect x="331.4" y="305" class="st4" width="83.8" height="1.8"/>
<rect x="331.4" y="301.4" class="st4" width="89.4" height="1.8"/>
<rect x="331.4" y="297.8" class="st4" width="87.1" height="1.8"/>
<rect x="331.4" y="294.3" class="st4" width="73.4" height="1.8"/>
<rect x="331.4" y="290.7" class="st4" width="81.3" height="1.8"/>
<rect x="331.4" y="287.1" class="st4" width="90" height="1.8"/>
<rect x="548.4" y="239.2" class="st4" width="94.4" height="41.4"/>
<rect x="548.4" y="283.5" class="st2" width="71.2" height="1.8"/>
<rect x="548.4" y="287.1" class="st4" width="94.4" height="1.8"/>
<rect x="548.4" y="290.7" class="st4" width="94.4" height="1.8"/>
<rect x="548.4" y="294.3" class="st4" width="90.4" height="1.8"/>
<rect x="548.4" y="305" class="st4" width="92.5" height="1.8"/>
<rect x="548.4" y="308.5" class="st4" width="90" height="1.8"/>
<rect x="548.4" y="312.1" class="st4" width="44" height="1.8"/>
<rect x="548.4" y="347.8" class="st4" width="84.4" height="1.8"/>
<rect x="548.4" y="344.2" class="st4" width="92.5" height="1.8"/>
<rect x="548.4" y="340.7" class="st4" width="89.5" height="1.8"/>
<rect x="548.4" y="337.1" class="st4" width="83.8" height="1.8"/>
<rect x="548.4" y="333.5" class="st4" width="89.5" height="1.8"/>
<rect x="548.4" y="330" class="st4" width="87.1" height="1.8"/>
<rect x="548.4" y="326.4" class="st4" width="73.4" height="1.8"/>
<rect x="548.4" y="301.4" class="st4" width="87.1" height="1.8"/>
<rect x="548.4" y="297.8" class="st4" width="73.4" height="1.8"/>
<rect x="548.4" y="322.8" class="st4" width="81.3" height="1.8"/>
<rect x="548.4" y="319.2" class="st4" width="90" height="1.8"/>
<rect x="439.9" y="239.2" class="st4" width="94.4" height="41.4"/>
<rect x="439.9" y="283.5" class="st2" width="71.2" height="1.8"/>
<rect x="439.9" y="287.1" class="st4" width="94.4" height="1.8"/>
<rect x="439.9" y="290.7" class="st4" width="94.4" height="1.8"/>
<rect x="439.9" y="294.3" class="st4" width="90.4" height="1.8"/>
<rect x="439.9" y="297.8" class="st4" width="92.5" height="1.8"/>
<rect x="439.9" y="301.4" class="st4" width="90" height="1.8"/>
<rect x="439.9" y="305" class="st4" width="44" height="1.8"/>
<rect x="439.9" y="312.1" class="st4" width="84.4" height="1.8"/>
<rect x="439.9" y="315.7" class="st4" width="92.5" height="1.8"/>
<rect x="439.9" y="319.2" class="st4" width="89.5" height="1.8"/>
<rect x="439.9" y="322.8" class="st4" width="83.8" height="1.8"/>
<rect x="439.9" y="326.4" class="st4" width="89.5" height="1.8"/>
<rect x="439.9" y="330" class="st4" width="87.1" height="1.8"/>
<rect x="439.9" y="333.5" class="st4" width="73.4" height="1.8"/>
<rect x="439.9" y="337.1" class="st4" width="81.3" height="1.8"/>
<rect x="439.9" y="340.7" class="st4" width="90" height="1.8"/>
<rect x="439.9" y="344.2" class="st4" width="19.5" height="1.8"/>
<rect x="548.4" y="145.6" class="st4" width="14.1" height="1.8"/>
<rect x="568.5" y="145.6" class="st4" width="14.1" height="1.8"/>
<rect x="588.5" y="145.6" class="st4" width="14.1" height="1.8"/>
<rect x="608.6" y="145.6" class="st4" width="14.1" height="1.8"/>
<rect x="628.7" y="145.6" class="st4" width="14.1" height="1.8"/>
<polygon class="st6" points="252.9,395.5 252.9,93.3 534.2,93.3 "/>
<circle class="st4" cx="799.2" cy="149" r="11.3"/>
<rect x="777" y="167.4" class="st2" width="158" height="47.7"/>
<rect x="860.5" y="225.9" class="st4" width="62.6" height="41.4"/>
<rect x="860.5" y="270.2" class="st2" width="47.2" height="1.8"/>
<rect x="860.5" y="273.8" class="st4" width="62.6" height="1.8"/>
<rect x="860.5" y="277.4" class="st4" width="62.6" height="1.8"/>
<rect x="860.5" y="280.9" class="st4" width="59.9" height="1.8"/>
<rect x="860.5" y="291.6" class="st4" width="61.4" height="1.8"/>
<rect x="860.5" y="295.2" class="st4" width="59.7" height="1.8"/>
<rect x="860.5" y="298.8" class="st4" width="29.2" height="1.8"/>
<rect x="860.5" y="334.5" class="st4" width="56" height="1.8"/>
<rect x="860.5" y="330.9" class="st4" width="61.4" height="1.8"/>
<rect x="860.5" y="327.4" class="st4" width="59.3" height="1.8"/>
<rect x="860.5" y="323.8" class="st4" width="55.6" height="1.8"/>
<rect x="860.5" y="320.2" class="st4" width="59.3" height="1.8"/>
<rect x="860.5" y="316.6" class="st4" width="57.7" height="1.8"/>
<rect x="860.5" y="313.1" class="st4" width="48.7" height="1.8"/>
<rect x="860.5" y="288.1" class="st4" width="57.7" height="1.8"/>
<rect x="860.5" y="284.5" class="st4" width="48.7" height="1.8"/>
<rect x="860.5" y="309.5" class="st4" width="53.9" height="1.8"/>
<rect x="860.5" y="305.9" class="st4" width="59.7" height="1.8"/>
<rect x="788.5" y="225.9" class="st4" width="62.6" height="41.4"/>
<rect x="788.5" y="270.2" class="st2" width="47.2" height="1.8"/>
<rect x="788.5" y="273.8" class="st4" width="62.6" height="1.8"/>
<rect x="788.5" y="277.4" class="st4" width="62.6" height="1.8"/>
<rect x="788.5" y="280.9" class="st4" width="59.9" height="1.8"/>
<rect x="788.5" y="284.5" class="st4" width="61.4" height="1.8"/>
<rect x="788.5" y="288.1" class="st4" width="59.7" height="1.8"/>
<rect x="788.5" y="291.6" class="st4" width="29.2" height="1.8"/>
<rect x="788.5" y="298.8" class="st4" width="56" height="1.8"/>
<rect x="788.5" y="302.4" class="st4" width="61.4" height="1.8"/>
<rect x="788.5" y="305.9" class="st4" width="59.3" height="1.8"/>
<rect x="788.5" y="309.5" class="st4" width="55.6" height="1.8"/>
<rect x="788.5" y="313.1" class="st4" width="59.3" height="1.8"/>
<rect x="788.5" y="316.6" class="st4" width="57.7" height="1.8"/>
<rect x="788.5" y="320.2" class="st4" width="48.7" height="1.8"/>
<rect x="788.5" y="323.8" class="st4" width="53.9" height="1.8"/>
<rect x="788.5" y="327.4" class="st4" width="59.7" height="1.8"/>
<rect x="788.5" y="330.9" class="st4" width="12.9" height="1.8"/>
<rect x="777" y="127.5" class="st7" width="158" height="223.8"/>
<circle class="st5" cx="856" cy="127.5" r="1.5"/>
<rect x="828.7" y="158.5" class="st4" width="14.1" height="1.8"/>
<rect x="848.8" y="158.5" class="st4" width="14.1" height="1.8"/>
<rect x="868.8" y="158.5" class="st4" width="14.1" height="1.8"/>
<rect x="888.9" y="158.5" class="st4" width="14.1" height="1.8"/>
<rect x="909" y="158.5" class="st4" width="14.1" height="1.8"/>
<polygon class="st6" points="773.8,358.6 773.8,120.9 919.8,120.9 "/>
<rect x="999.6" y="166.4" class="st2" width="83.5" height="43.5"/>
<rect x="1010.1" y="214.9" class="st4" width="62.6" height="41.4"/>
<rect x="1010.1" y="259.2" class="st2" width="47.2" height="1.8"/>
<rect x="1010.1" y="262.8" class="st4" width="62.6" height="1.8"/>
<rect x="1010.1" y="266.4" class="st4" width="62.6" height="1.8"/>
<rect x="1010.1" y="270" class="st4" width="59.9" height="1.8"/>
<rect x="1010.1" y="280.7" class="st4" width="61.4" height="1.8"/>
<rect x="1010.1" y="284.2" class="st4" width="59.7" height="1.8"/>
<rect x="1010.1" y="287.8" class="st4" width="29.2" height="1.8"/>
<rect x="1010.1" y="323.5" class="st4" width="56" height="1.8"/>
<rect x="1010.1" y="320" class="st4" width="61.4" height="1.8"/>
<rect x="1010.1" y="316.4" class="st4" width="59.3" height="1.8"/>
<rect x="1010.1" y="312.8" class="st4" width="55.6" height="1.8"/>
<rect x="1010.1" y="309.2" class="st4" width="59.3" height="1.8"/>
<rect x="1010.1" y="305.7" class="st4" width="57.7" height="1.8"/>
<rect x="1010.1" y="302.1" class="st4" width="48.7" height="1.8"/>
<rect x="1010.1" y="277.1" class="st4" width="57.7" height="1.8"/>
<rect x="1010.1" y="273.5" class="st4" width="48.7" height="1.8"/>
<rect x="1010.1" y="298.5" class="st4" width="53.9" height="1.8"/>
<rect x="1010.1" y="295" class="st4" width="59.7" height="1.8"/>
<rect x="1065.7" y="175.8" class="st8" width="9.2" height="1.1"/>
<rect x="1065.7" y="177.9" class="st8" width="9.2" height="1.1"/>
<rect x="1065.7" y="180.1" class="st8" width="9.2" height="1.1"/>
<path class="st9" d="M1004.6,164.2h73.4c2.8,0,5,2.3,5,5v160.2c0,2.8-2.3,5-5,5h-73.4c-2.8,0-5-2.3-5-5V169.2
	C999.6,166.5,1001.9,164.2,1004.6,164.2z"/>
<path d="M1022.1,164.2h38.5l0,0l0,0c0,3.9-3.2,7.1-7.1,7.1l0,0h-24.2C1025.3,171.3,1022.1,168.1,1022.1,164.2L1022.1,164.2
	L1022.1,164.2L1022.1,164.2z"/>
<circle class="st8" cx="1013.3" cy="178.5" r="7.2"/>
<circle class="st5" cx="1035.9" cy="167.4" r="1.5"/>
<circle class="st5" cx="1046.9" cy="167.4" r="1.5"/>
<polygon class="st6" points="996.4,342.6 996.4,161.1 1066.1,161.1 "/>
<path class="st10" d="M830.7,402.4c-26,50.8-88.3,70.9-139.2,44.9c-12.3-6.3-23.2-15-32.1-25.6"/>
<polygon class="st2" points="808.1,400.7 840.5,373.6 847.7,415.2 "/>
<path class="st10" d="M879.9,89c21.9-42.9,74.5-60,117.4-38.1c24.2,12.3,41.3,35.2,46.2,61.9"/>
<polygon class="st2" points="1021.4,107.3 1043.7,143.2 1063.6,105.9 "/>
</svg>
